<svg
    width="24"
    height="24"
    viewBox="0 0 24 24"
    fill="white"
    style={{ marginRight: "4px" }}
  >
    <path d="M12.53 2.01c-.29 0-.53.24-.53.53v6.47c0 .29.24.53.53.53.29 0 .53-.24.53-.53v-2.47c1.95.39 3.47 1.91 3.86 3.86h-2.47c-.29 0-.53.24-.53.53 0 .29.24.53.53.53h4.47c.29 0 .53-.24.53-.53 0-2.94-1.91-5.39-4.53-6.27v2.47c-2.94-.59-5.39-2.94-5.86-5.86h2.47c.29 0 .53-.24.53-.53 0-.29-.24-.53-.53-.53h-4.47c-.29 0-.53.24-.53.53 0 3.82 2.47 7.06 5.86 8.24v2.47c-4.12-.59-7.35-3.82-7.94-7.94h2.47c.29 0 .53-.24.53-.53 0-.29-.24-.53-.53-.53h-4.47c-.29 0-.53.24-.53.53 0 5.29 3.82 9.65 8.94 10.53v-2.47c-2.94.59-5.39-2.94-5.86-5.86h2.47c.29 0 .53-.24.53-.53 0-.29-.24-.53-.53-.53h-4.47c-.29 0-.53.24-.53.53 0 3.82 2.47 7.06 5.86 8.24v2.47c-5.29-.88-9.65-4.94-10.53-10.53h4.47c.29 0 .53-.24.53-.53 0-.29-.24-.53-.53-.53h-4.47c-.29 0-.53.24-.53.53 0 6.47 5.24 11.71 11.71 11.71s11.71-5.24 11.71-11.71c0-2.94-1.06-5.65-2.82-7.76-.24-.29-.65-.18-.76.12z" />
  </svg>